<?xml version="1.0" standalone="no"?>
<!DOCTYPE svg PUBLIC "-//W3C//DTD SVG 20010904//EN"
 "http://www.w3.org/TR/2001/REC-SVG-20010904/DTD/svg10.dtd">
<svg version="1.0" xmlns="http://www.w3.org/2000/svg"
 width="107.000000pt" height="107.000000pt" viewBox="0 0 107.000000 107.000000"
 preserveAspectRatio="xMidYMid meet">
<metadata>
Created by potrace 1.14, written by Peter Selinger 2001-2017
</metadata>
<g transform="translate(0.000000,107.000000) scale(0.100000,-0.100000)"
fill="#000000" stroke="none">
<path d="M70 741 l0 -221 35 0 35 0 0 60 0 60 130 0 c110 0 137 3 169 20 87
44 96 196 17 270 -27 24 -32 25 -207 28 l-179 3 0 -220z m342 132 c14 -12 18
-31 18 -80 0 -59 -2 -64 -26 -73 -14 -6 -79 -10 -145 -10 l-119 0 0 90 0 90
127 0 c104 0 130 -3 145 -17z"/>
<path d="M530 910 c0 -49 2 -52 90 -149 l90 -99 0 -71 0 -71 40 0 40 0 0 71 0
71 90 97 c89 97 90 99 90 150 l0 51 -35 0 c-34 0 -35 -1 -35 -37 -1 -33 -11
-49 -76 -118 l-75 -80 -74 80 c-64 69 -74 85 -75 118 0 36 -1 37 -35 37 l-35
0 0 -50z"/>
<path d="M512 293 l3 -238 238 -3 237 -2 0 240 0 240 -95 0 c-95 0 -95 0 -95
-25 0 -24 -3 -25 -55 -25 -52 0 -55 1 -55 25 0 25 -1 25 -90 25 l-90 0 2 -237z"/>
</g>
</svg>
